<svg aria-roledescription="er" viewBox="0 0 773.0548095703125 364" style="max-width: 773.055px; background-color: white;" xmlns:xlink="http://www.w3.org/1999/xlink" xmlns="http://www.w3.org/2000/svg" width="100%" id="mermaid-0"><style>#mermaid-0{font-family:"trebuchet ms",verdana,arial,sans-serif;font-size:16px;fill:#000000;}#mermaid-0 .error-icon{fill:#552222;}#mermaid-0 .error-text{fill:#552222;stroke:#552222;}#mermaid-0 .edge-thickness-normal{stroke-width:2px;}#mermaid-0 .edge-thickness-thick{stroke-width:3.5px;}#mermaid-0 .edge-pattern-solid{stroke-dasharray:0;}#mermaid-0 .edge-pattern-dashed{stroke-dasharray:3;}#mermaid-0 .edge-pattern-dotted{stroke-dasharray:2;}#mermaid-0 .marker{fill:#000000;stroke:#000000;}#mermaid-0 .marker.cross{stroke:#000000;}#mermaid-0 svg{font-family:"trebuchet ms",verdana,arial,sans-serif;font-size:16px;}#mermaid-0 .entityBox{fill:#cde498;stroke:#13540c;}#mermaid-0 .attributeBoxOdd{fill:#ffffff;stroke:#13540c;}#mermaid-0 .attributeBoxEven{fill:#f2f2f2;stroke:#13540c;}#mermaid-0 .relationshipLabelBox{fill:hsl(78.1578947368, 58.4615384615%, 84.5098039216%);opacity:0.7;background-color:hsl(78.1578947368, 58.4615384615%, 84.5098039216%);}#mermaid-0 .relationshipLabelBox rect{opacity:0.5;}#mermaid-0 .relationshipLine{stroke:#000000;}#mermaid-0 .entityTitleText{text-anchor:middle;font-size:18px;fill:#000000;}#mermaid-0 :root{--mermaid-font-family:"trebuchet ms",verdana,arial,sans-serif;}</style><g/><defs><marker orient="auto" markerHeight="18" markerWidth="18" refY="9" refX="0" id="ONLY_ONE_START"><path d="M9,0 L9,18 M15,0 L15,18" fill="none" stroke="gray"/></marker></defs><defs><marker orient="auto" markerHeight="18" markerWidth="18" refY="9" refX="18" id="ONLY_ONE_END"><path d="M3,0 L3,18 M9,0 L9,18" fill="none" stroke="gray"/></marker></defs><defs><marker orient="auto" markerHeight="18" markerWidth="30" refY="9" refX="0" id="ZERO_OR_ONE_START"><circle r="6" cy="9" cx="21" fill="white" stroke="gray"/><path d="M9,0 L9,18" fill="none" stroke="gray"/></marker></defs><defs><marker orient="auto" markerHeight="18" markerWidth="30" refY="9" refX="30" id="ZERO_OR_ONE_END"><circle r="6" cy="9" cx="9" fill="white" stroke="gray"/><path d="M21,0 L21,18" fill="none" stroke="gray"/></marker></defs><defs><marker orient="auto" markerHeight="36" markerWidth="45" refY="18" refX="18" id="ONE_OR_MORE_START"><path d="M0,18 Q 18,0 36,18 Q 18,36 0,18 M42,9 L42,27" fill="none" stroke="gray"/></marker></defs><defs><marker orient="auto" markerHeight="36" markerWidth="45" refY="18" refX="27" id="ONE_OR_MORE_END"><path d="M3,9 L3,27 M9,18 Q27,0 45,18 Q27,36 9,18" fill="none" stroke="gray"/></marker></defs><defs><marker orient="auto" markerHeight="36" markerWidth="57" refY="18" refX="18" id="ZERO_OR_MORE_START"><circle r="6" cy="18" cx="48" fill="white" stroke="gray"/><path d="M0,18 Q18,0 36,18 Q18,36 0,18" fill="none" stroke="gray"/></marker></defs><defs><marker orient="auto" markerHeight="36" markerWidth="57" refY="18" refX="39" id="ZERO_OR_MORE_END"><circle r="6" cy="18" cx="9" fill="white" stroke="gray"/><path d="M21,18 Q39,0 57,18 Q39,36 21,18" fill="none" stroke="gray"/></marker></defs><path style="stroke: gray; fill: none;" marker-start="url(#ZERO_OR_MORE_START)" marker-end="url(#ONLY_ONE_END)" d="M125.16853259858631,77L119.116945296999,87.16666666666667C113.0653579954117,97.33333333333333,100.9621833922371,117.66666666666667,94.9105960906498,136.16666666666666C88.8590087890625,154.66666666666666,88.8590087890625,171.33333333333334,88.8590087890625,179.66666666666666L88.8590087890625,188" class="er relationshipLine"/><path style="stroke: gray; fill: none;" marker-start="url(#ZERO_OR_MORE_START)" marker-end="url(#ONLY_ONE_END)" d="M157.7132611955915,77L166.0473872593471,87.16666666666667C174.38151332310267,97.33333333333333,191.04976545061382,117.66666666666667,218.86465891344207,141.66666666666666C246.6795523762703,165.66666666666666,285.6410871744156,193.33333333333334,305.12185457348824,207.16666666666666L324.6026219725609,221" class="er relationshipLine"/><path style="stroke: gray; fill: none;" marker-start="url(#ZERO_OR_MORE_START)" marker-end="url(#ONLY_ONE_END)" d="M487.97379302978516,70.08292759541385L523.1648737589518,81.40243966284487C558.3559544881185,92.7219517302759,628.7381159464518,115.36097586513795,663.9291966756185,142.34715459923564C699.1202774047852,169.33333333333334,699.1202774047852,200.66666666666666,699.1202774047852,216.33333333333334L699.1202774047852,232" class="er relationshipLine"/><path style="stroke: gray; fill: none;" marker-start="url(#ZERO_OR_MORE_START)" marker-end="url(#ONLY_ONE_END)" d="M407.47229739597867,77L393.9897522245135,87.16666666666667C380.50720705304826,97.33333333333333,353.5421167101179,117.66666666666667,346.6948991857824,141.66666666666666C339.84768166144687,165.66666666666666,353.1183369557063,193.33333333333334,359.75366460283595,207.16666666666666L366.38899224996567,221" class="er relationshipLine"/><path style="stroke: gray; fill: none;" marker-start="url(#ZERO_OR_MORE_START)" marker-end="url(#ONLY_ONE_END)" d="M604.0311099461147,88L592.9798434121268,96.33333333333333C581.928576878139,104.66666666666667,559.8260438101632,121.33333333333333,532.590888512986,143.5C505.35573321580887,165.66666666666666,472.98795568943024,193.33333333333334,456.8040669262409,207.16666666666666L440.6201781630516,221" class="er relationshipLine"/><g transform="translate(319.11478424072266,221 )" id="entity-habits-3e828928-fa19-41f3-96db-d2c560063aea"><rect height="90" width="137.718017578125" y="0" x="0" class="er entityBox"/><text style="dominant-baseline: middle; text-anchor: middle; font-size: 12px;" transform="translate(68.8590087890625,12)" y="0" x="0" id="text-entity-habits-3e828928-fa19-41f3-96db-d2c560063aea" class="er entityLabel">habits</text><rect height="22" width="54.095550537109375" y="24" x="0" class="er attributeBoxOdd"/><text style="dominant-baseline: middle; font-size: 10.2px;" transform="translate(5,35)" y="0" x="0" id="text-entity-habits-3e828928-fa19-41f3-96db-d2c560063aea-attr-1-type" class="er entityLabel">String</text><rect height="22" width="60.934783935546875" y="24" x="54.095550537109375" class="er attributeBoxOdd"/><text style="dominant-baseline: middle; font-size: 10.2px;" transform="translate(59.095550537109375,35)" y="0" x="0" id="text-entity-habits-3e828928-fa19-41f3-96db-d2c560063aea-attr-1-name" class="er entityLabel">id</text><rect height="22" width="22.68768310546875" y="24" x="115.03033447265625" class="er attributeBoxOdd"/><text style="dominant-baseline: middle; font-size: 10.2px;" transform="translate(120.03033447265625,35)" y="0" x="0" id="text-entity-habits-3e828928-fa19-41f3-96db-d2c560063aea-attr-1-key" class="er entityLabel">PK</text><rect height="22" width="54.095550537109375" y="46" x="0" class="er attributeBoxEven"/><text style="dominant-baseline: middle; font-size: 10.2px;" transform="translate(5,57)" y="0" x="0" id="text-entity-habits-3e828928-fa19-41f3-96db-d2c560063aea-attr-2-type" class="er entityLabel">String</text><rect height="22" width="60.934783935546875" y="46" x="54.095550537109375" class="er attributeBoxEven"/><text style="dominant-baseline: middle; font-size: 10.2px;" transform="translate(59.095550537109375,57)" y="0" x="0" id="text-entity-habits-3e828928-fa19-41f3-96db-d2c560063aea-attr-2-name" class="er entityLabel">title</text><rect height="22" width="22.68768310546875" y="46" x="115.03033447265625" class="er attributeBoxEven"/><text style="dominant-baseline: middle; font-size: 10.2px;" transform="translate(120.03033447265625,57)" y="0" x="0" id="text-entity-habits-3e828928-fa19-41f3-96db-d2c560063aea-attr-2-key" class="er entityLabel"/><rect height="22" width="54.095550537109375" y="68" x="0" class="er attributeBoxOdd"/><text style="dominant-baseline: middle; font-size: 10.2px;" transform="translate(5,79)" y="0" x="0" id="text-entity-habits-3e828928-fa19-41f3-96db-d2c560063aea-attr-3-type" class="er entityLabel">DateTime</text><rect height="22" width="60.934783935546875" y="68" x="54.095550537109375" class="er attributeBoxOdd"/><text style="dominant-baseline: middle; font-size: 10.2px;" transform="translate(59.095550537109375,79)" y="0" x="0" id="text-entity-habits-3e828928-fa19-41f3-96db-d2c560063aea-attr-3-name" class="er entityLabel">created_at</text><rect height="22" width="22.68768310546875" y="68" x="115.03033447265625" class="er attributeBoxOdd"/><text style="dominant-baseline: middle; font-size: 10.2px;" transform="translate(120.03033447265625,79)" y="0" x="0" id="text-entity-habits-3e828928-fa19-41f3-96db-d2c560063aea-attr-3-key" class="er entityLabel"/></g><g transform="translate(20,188 )" id="entity-notificacao-24ec259f-1f0f-4a18-8f4a-3fe1d3fa7203"><rect height="156" width="137.718017578125" y="0" x="0" class="er entityBox"/><text style="dominant-baseline: middle; text-anchor: middle; font-size: 12px;" transform="translate(68.8590087890625,12)" y="0" x="0" id="text-entity-notificacao-24ec259f-1f0f-4a18-8f4a-3fe1d3fa7203" class="er entityLabel">notificacao</text><rect height="22" width="54.095550537109375" y="24" x="0" class="er attributeBoxOdd"/><text style="dominant-baseline: middle; font-size: 10.2px;" transform="translate(5,35)" y="0" x="0" id="text-entity-notificacao-24ec259f-1f0f-4a18-8f4a-3fe1d3fa7203-attr-1-type" class="er entityLabel">Int</text><rect height="22" width="60.934783935546875" y="24" x="54.095550537109375" class="er attributeBoxOdd"/><text style="dominant-baseline: middle; font-size: 10.2px;" transform="translate(59.095550537109375,35)" y="0" x="0" id="text-entity-notificacao-24ec259f-1f0f-4a18-8f4a-3fe1d3fa7203-attr-1-name" class="er entityLabel">id</text><rect height="22" width="22.68768310546875" y="24" x="115.03033447265625" class="er attributeBoxOdd"/><text style="dominant-baseline: middle; font-size: 10.2px;" transform="translate(120.03033447265625,35)" y="0" x="0" id="text-entity-notificacao-24ec259f-1f0f-4a18-8f4a-3fe1d3fa7203-attr-1-key" class="er entityLabel">PK</text><rect height="22" width="54.095550537109375" y="46" x="0" class="er attributeBoxEven"/><text style="dominant-baseline: middle; font-size: 10.2px;" transform="translate(5,57)" y="0" x="0" id="text-entity-notificacao-24ec259f-1f0f-4a18-8f4a-3fe1d3fa7203-attr-2-type" class="er entityLabel">String</text><rect height="22" width="60.934783935546875" y="46" x="54.095550537109375" class="er attributeBoxEven"/><text style="dominant-baseline: middle; font-size: 10.2px;" transform="translate(59.095550537109375,57)" y="0" x="0" id="text-entity-notificacao-24ec259f-1f0f-4a18-8f4a-3fe1d3fa7203-attr-2-name" class="er entityLabel">title</text><rect height="22" width="22.68768310546875" y="46" x="115.03033447265625" class="er attributeBoxEven"/><text style="dominant-baseline: middle; font-size: 10.2px;" transform="translate(120.03033447265625,57)" y="0" x="0" id="text-entity-notificacao-24ec259f-1f0f-4a18-8f4a-3fe1d3fa7203-attr-2-key" class="er entityLabel"/><rect height="22" width="54.095550537109375" y="68" x="0" class="er attributeBoxOdd"/><text style="dominant-baseline: middle; font-size: 10.2px;" transform="translate(5,79)" y="0" x="0" id="text-entity-notificacao-24ec259f-1f0f-4a18-8f4a-3fe1d3fa7203-attr-3-type" class="er entityLabel">String</text><rect height="22" width="60.934783935546875" y="68" x="54.095550537109375" class="er attributeBoxOdd"/><text style="dominant-baseline: middle; font-size: 10.2px;" transform="translate(59.095550537109375,79)" y="0" x="0" id="text-entity-notificacao-24ec259f-1f0f-4a18-8f4a-3fe1d3fa7203-attr-3-name" class="er entityLabel">body</text><rect height="22" width="22.68768310546875" y="68" x="115.03033447265625" class="er attributeBoxOdd"/><text style="dominant-baseline: middle; font-size: 10.2px;" transform="translate(120.03033447265625,79)" y="0" x="0" id="text-entity-notificacao-24ec259f-1f0f-4a18-8f4a-3fe1d3fa7203-attr-3-key" class="er entityLabel"/><rect height="22" width="54.095550537109375" y="90" x="0" class="er attributeBoxEven"/><text style="dominant-baseline: middle; font-size: 10.2px;" transform="translate(5,101)" y="0" x="0" id="text-entity-notificacao-24ec259f-1f0f-4a18-8f4a-3fe1d3fa7203-attr-4-type" class="er entityLabel">String</text><rect height="22" width="60.934783935546875" y="90" x="54.095550537109375" class="er attributeBoxEven"/><text style="dominant-baseline: middle; font-size: 10.2px;" transform="translate(59.095550537109375,101)" y="0" x="0" id="text-entity-notificacao-24ec259f-1f0f-4a18-8f4a-3fe1d3fa7203-attr-4-name" class="er entityLabel">payload</text><rect height="22" width="22.68768310546875" y="90" x="115.03033447265625" class="er attributeBoxEven"/><text style="dominant-baseline: middle; font-size: 10.2px;" transform="translate(120.03033447265625,101)" y="0" x="0" id="text-entity-notificacao-24ec259f-1f0f-4a18-8f4a-3fe1d3fa7203-attr-4-key" class="er entityLabel"/><rect height="22" width="54.095550537109375" y="112" x="0" class="er attributeBoxOdd"/><text style="dominant-baseline: middle; font-size: 10.2px;" transform="translate(5,123)" y="0" x="0" id="text-entity-notificacao-24ec259f-1f0f-4a18-8f4a-3fe1d3fa7203-attr-5-type" class="er entityLabel">String</text><rect height="22" width="60.934783935546875" y="112" x="54.095550537109375" class="er attributeBoxOdd"/><text style="dominant-baseline: middle; font-size: 10.2px;" transform="translate(59.095550537109375,123)" y="0" x="0" id="text-entity-notificacao-24ec259f-1f0f-4a18-8f4a-3fe1d3fa7203-attr-5-name" class="er entityLabel">time</text><rect height="22" width="22.68768310546875" y="112" x="115.03033447265625" class="er attributeBoxOdd"/><text style="dominant-baseline: middle; font-size: 10.2px;" transform="translate(120.03033447265625,123)" y="0" x="0" id="text-entity-notificacao-24ec259f-1f0f-4a18-8f4a-3fe1d3fa7203-attr-5-key" class="er entityLabel"/><rect height="22" width="54.095550537109375" y="134" x="0" class="er attributeBoxEven"/><text style="dominant-baseline: middle; font-size: 10.2px;" transform="translate(5,145)" y="0" x="0" id="text-entity-notificacao-24ec259f-1f0f-4a18-8f4a-3fe1d3fa7203-attr-6-type" class="er entityLabel">DateTime</text><rect height="22" width="60.934783935546875" y="134" x="54.095550537109375" class="er attributeBoxEven"/><text style="dominant-baseline: middle; font-size: 10.2px;" transform="translate(59.095550537109375,145)" y="0" x="0" id="text-entity-notificacao-24ec259f-1f0f-4a18-8f4a-3fe1d3fa7203-attr-6-name" class="er entityLabel">created_at</text><rect height="22" width="22.68768310546875" y="134" x="115.03033447265625" class="er attributeBoxEven"/><text style="dominant-baseline: middle; font-size: 10.2px;" transform="translate(120.03033447265625,145)" y="0" x="0" id="text-entity-notificacao-24ec259f-1f0f-4a18-8f4a-3fe1d3fa7203-attr-6-key" class="er entityLabel"/></g><g transform="translate(76.7457275390625,31 )" id="entity-notificacaohabit-bc84c448-7673-4b3d-88e4-f3633c81e701"><rect height="46" width="124.2265625" y="0" x="0" class="er entityBox"/><text style="dominant-baseline: middle; text-anchor: middle; font-size: 12px;" transform="translate(62.11328125,12)" y="0" x="0" id="text-entity-notificacaohabit-bc84c448-7673-4b3d-88e4-f3633c81e701" class="er entityLabel">notificacao_habit</text><rect height="22" width="52.47413635253906" y="24" x="0" class="er attributeBoxOdd"/><text style="dominant-baseline: middle; font-size: 10.2px;" transform="translate(5,35)" y="0" x="0" id="text-entity-notificacaohabit-bc84c448-7673-4b3d-88e4-f3633c81e701-attr-1-type" class="er entityLabel">String</text><rect height="22" width="33.986663818359375" y="24" x="52.47413635253906" class="er attributeBoxOdd"/><text style="dominant-baseline: middle; font-size: 10.2px;" transform="translate(57.47413635253906,35)" y="0" x="0" id="text-entity-notificacaohabit-bc84c448-7673-4b3d-88e4-f3633c81e701-attr-1-name" class="er entityLabel">id</text><rect height="22" width="37.76576232910156" y="24" x="86.46080017089844" class="er attributeBoxOdd"/><text style="dominant-baseline: middle; font-size: 10.2px;" transform="translate(91.46080017089844,35)" y="0" x="0" id="text-entity-notificacaohabit-bc84c448-7673-4b3d-88e4-f3633c81e701-attr-1-key" class="er entityLabel">PK</text></g><g transform="translate(645.1857528686523,232 )" id="entity-days-6072a2b7-01f1-4c1e-ab2c-7e8e6f6292d7"><rect height="68" width="107.86904907226562" y="0" x="0" class="er entityBox"/><text style="dominant-baseline: middle; text-anchor: middle; font-size: 12px;" transform="translate(53.93452453613281,12)" y="0" x="0" id="text-entity-days-6072a2b7-01f1-4c1e-ab2c-7e8e6f6292d7" class="er entityLabel">days</text><rect height="22" width="54.095550537109375" y="24" x="0" class="er attributeBoxOdd"/><text style="dominant-baseline: middle; font-size: 10.2px;" transform="translate(5,35)" y="0" x="0" id="text-entity-days-6072a2b7-01f1-4c1e-ab2c-7e8e6f6292d7-attr-1-type" class="er entityLabel">String</text><rect height="22" width="31.0858154296875" y="24" x="54.095550537109375" class="er attributeBoxOdd"/><text style="dominant-baseline: middle; font-size: 10.2px;" transform="translate(59.095550537109375,35)" y="0" x="0" id="text-entity-days-6072a2b7-01f1-4c1e-ab2c-7e8e6f6292d7-attr-1-name" class="er entityLabel">id</text><rect height="22" width="22.68768310546875" y="24" x="85.18136596679688" class="er attributeBoxOdd"/><text style="dominant-baseline: middle; font-size: 10.2px;" transform="translate(90.18136596679688,35)" y="0" x="0" id="text-entity-days-6072a2b7-01f1-4c1e-ab2c-7e8e6f6292d7-attr-1-key" class="er entityLabel">PK</text><rect height="22" width="54.095550537109375" y="46" x="0" class="er attributeBoxEven"/><text style="dominant-baseline: middle; font-size: 10.2px;" transform="translate(5,57)" y="0" x="0" id="text-entity-days-6072a2b7-01f1-4c1e-ab2c-7e8e6f6292d7-attr-2-type" class="er entityLabel">DateTime</text><rect height="22" width="31.0858154296875" y="46" x="54.095550537109375" class="er attributeBoxEven"/><text style="dominant-baseline: middle; font-size: 10.2px;" transform="translate(59.095550537109375,57)" y="0" x="0" id="text-entity-days-6072a2b7-01f1-4c1e-ab2c-7e8e6f6292d7-attr-2-name" class="er entityLabel">date</text><rect height="22" width="22.68768310546875" y="46" x="85.18136596679688" class="er attributeBoxEven"/><text style="dominant-baseline: middle; font-size: 10.2px;" transform="translate(90.18136596679688,57)" y="0" x="0" id="text-entity-days-6072a2b7-01f1-4c1e-ab2c-7e8e6f6292d7-attr-2-key" class="er entityLabel"/></g><g transform="translate(387.97379302978516,31 )" id="entity-dayhabits-55e954dc-ce7b-4054-a044-c57caba6e818"><rect height="46" width="100" y="0" x="0" class="er entityBox"/><text style="dominant-baseline: middle; text-anchor: middle; font-size: 12px;" transform="translate(50,12)" y="0" x="0" id="text-entity-dayhabits-55e954dc-ce7b-4054-a044-c57caba6e818" class="er entityLabel">day_habits</text><rect height="22" width="44.39861551920573" y="24" x="0" class="er attributeBoxOdd"/><text style="dominant-baseline: middle; font-size: 10.2px;" transform="translate(5,35)" y="0" x="0" id="text-entity-dayhabits-55e954dc-ce7b-4054-a044-c57caba6e818-attr-1-type" class="er entityLabel">String</text><rect height="22" width="25.911142985026043" y="24" x="44.39861551920573" class="er attributeBoxOdd"/><text style="dominant-baseline: middle; font-size: 10.2px;" transform="translate(49.39861551920573,35)" y="0" x="0" id="text-entity-dayhabits-55e954dc-ce7b-4054-a044-c57caba6e818-attr-1-name" class="er entityLabel">id</text><rect height="22" width="29.69024149576823" y="24" x="70.30975850423177" class="er attributeBoxOdd"/><text style="dominant-baseline: middle; font-size: 10.2px;" transform="translate(75.30975850423177,35)" y="0" x="0" id="text-entity-dayhabits-55e954dc-ce7b-4054-a044-c57caba6e818-attr-1-key" class="er entityLabel">PK</text></g><g transform="translate(587.9737930297852,20 )" id="entity-habitweekdays-7d25c070-e002-4665-bf2d-645c272d8e44"><rect height="68" width="122.29296875" y="0" x="0" class="er entityBox"/><text style="dominant-baseline: middle; text-anchor: middle; font-size: 12px;" transform="translate(61.146484375,12)" y="0" x="0" id="text-entity-habitweekdays-7d25c070-e002-4665-bf2d-645c272d8e44" class="er entityLabel">habit_week_days</text><rect height="22" width="39.0484364827474" y="24" x="0" class="er attributeBoxOdd"/><text style="dominant-baseline: middle; font-size: 10.2px;" transform="translate(5,35)" y="0" x="0" id="text-entity-habitweekdays-7d25c070-e002-4665-bf2d-645c272d8e44-attr-1-type" class="er entityLabel">String</text><rect height="22" width="58.90446980794271" y="24" x="39.0484364827474" class="er attributeBoxOdd"/><text style="dominant-baseline: middle; font-size: 10.2px;" transform="translate(44.0484364827474,35)" y="0" x="0" id="text-entity-habitweekdays-7d25c070-e002-4665-bf2d-645c272d8e44-attr-1-name" class="er entityLabel">id</text><rect height="22" width="24.340062459309895" y="24" x="97.95290629069011" class="er attributeBoxOdd"/><text style="dominant-baseline: middle; font-size: 10.2px;" transform="translate(102.95290629069011,35)" y="0" x="0" id="text-entity-habitweekdays-7d25c070-e002-4665-bf2d-645c272d8e44-attr-1-key" class="er entityLabel">PK</text><rect height="22" width="39.0484364827474" y="46" x="0" class="er attributeBoxEven"/><text style="dominant-baseline: middle; font-size: 10.2px;" transform="translate(5,57)" y="0" x="0" id="text-entity-habitweekdays-7d25c070-e002-4665-bf2d-645c272d8e44-attr-2-type" class="er entityLabel">Int</text><rect height="22" width="58.90446980794271" y="46" x="39.0484364827474" class="er attributeBoxEven"/><text style="dominant-baseline: middle; font-size: 10.2px;" transform="translate(44.0484364827474,57)" y="0" x="0" id="text-entity-habitweekdays-7d25c070-e002-4665-bf2d-645c272d8e44-attr-2-name" class="er entityLabel">week_day</text><rect height="22" width="24.340062459309895" y="46" x="97.95290629069011" class="er attributeBoxEven"/><text style="dominant-baseline: middle; font-size: 10.2px;" transform="translate(102.95290629069011,57)" y="0" x="0" id="text-entity-habitweekdays-7d25c070-e002-4665-bf2d-645c272d8e44-attr-2-key" class="er entityLabel"/></g><rect height="14" width="64" y="122.51461791992188" x="65.30389404296875" class="er relationshipLabelBox"/><text style="text-anchor: middle; dominant-baseline: middle; font-size: 12px;" y="129.51461791992188" x="97.30389404296875" id="rel1" class="er relationshipLabel">Notification</text><rect height="14" width="27.96875" y="148.41433715820312" x="221.47036743164062" class="er relationshipLabelBox"/><text style="text-anchor: middle; dominant-baseline: middle; font-size: 12px;" y="155.41433715820312" x="235.45474243164062" id="rel2" class="er relationshipLabel">habit</text><rect height="14" width="19.990234375" y="112.69123840332031" x="615.2265625" class="er relationshipLabelBox"/><text style="text-anchor: middle; dominant-baseline: middle; font-size: 12px;" y="119.69123840332031" x="625.2216796875" id="rel3" class="er relationshipLabel">day</text><rect height="14" width="27.96875" y="131.5119171142578" x="333.7316589355469" class="er relationshipLabelBox"/><text style="text-anchor: middle; dominant-baseline: middle; font-size: 12px;" y="138.5119171142578" x="347.7160339355469" id="rel4" class="er relationshipLabel">habit</text><rect height="14" width="27.96875" y="145.9486541748047" x="507.08477783203125" class="er relationshipLabelBox"/><text style="text-anchor: middle; dominant-baseline: middle; font-size: 12px;" y="152.9486541748047" x="521.0691528320312" id="rel5" class="er relationshipLabel">habit</text></svg>